<?xml version="1.0" encoding="iso-8859-1"?>
<!-- Generator: Adobe Illustrator 19.0.0, SVG Export Plug-In . SVG Version: 6.00 Build 0)  -->
<svg version="1.1" id="Capa_1" xmlns="http://www.w3.org/2000/svg" xmlns:xlink="http://www.w3.org/1999/xlink" x="0px" y="0px"
	 viewBox="0 0 480 480" style="enable-background:new 0 0 480 480;" xml:space="preserve">
<path style="fill:#7FCAC9;" d="M40,120c-4.418,0-8-3.582-8-8c0-13.255-10.745-24-24-24c-4.418,0-8-3.582-8-8s3.582-8,8-8
	c13.255,0,24-10.745,24-24c0-4.418,3.582-8,8-8s8,3.582,8,8c0,13.255,10.745,24,24,24c4.418,0,8,3.582,8,8s-3.582,8-8,8
	c-13.255,0-24,10.745-24,24C48,116.418,44.418,120,40,120z M32,80c3.029,2.278,5.722,4.971,8,8c2.278-3.029,4.971-5.722,8-8
	c-3.029-2.278-5.722-4.971-8-8C37.722,75.029,35.029,77.722,32,80z"/>
<g>
	<g>
		<path id="SVGCleanerId_0" style="fill:#32B1CC;" d="M112,0h16v16h-16V0z"/>
	</g>
	<g>
		<path id="SVGCleanerId_1" style="fill:#32B1CC;" d="M112,32h16v16h-16V32z"/>
	</g>
	<g>
		<path id="SVGCleanerId_2" style="fill:#32B1CC;" d="M96,16h16v16H96V16z"/>
	</g>
	<g>
		<path id="SVGCleanerId_3" style="fill:#32B1CC;" d="M128,16h16v16h-16V16z"/>
	</g>
</g>
<path style="fill:#7FCAC9;" d="M440,440c-4.418,0-8-3.582-8-8c0-13.255-10.745-24-24-24c-4.418,0-8-3.582-8-8s3.582-8,8-8
	c13.255,0,24-10.745,24-24c0-4.418,3.582-8,8-8s8,3.582,8,8c0,13.255,10.745,24,24,24c4.418,0,8,3.582,8,8s-3.582,8-8,8
	c-13.255,0-24,10.745-24,24C448,436.418,444.418,440,440,440z M432,400c3.029,2.278,5.722,4.971,8,8c2.278-3.029,4.971-5.722,8-8
	c-3.029-2.278-5.722-4.971-8-8C437.722,395.029,435.029,397.722,432,400z"/>
<g>
	<path style="fill:#32B1CC;" d="M352,464h16v16h-16V464z"/>
	<path style="fill:#32B1CC;" d="M352,432h16v16h-16V432z"/>
	<path style="fill:#32B1CC;" d="M368,448h16v16h-16V448z"/>
	<path style="fill:#32B1CC;" d="M336,448h16v16h-16V448z"/>
</g>
<circle style="fill:#FDBD40;" cx="240" cy="240" r="160"/>
<path style="fill:#E9686A;" d="M65.544,434.4c-5.38,0.385-10.648-1.671-14.344-5.6c-4.952-4.952-20-20,35.304-97.168
	c2.576-3.59,7.574-4.412,11.164-1.836s4.412,7.574,1.836,11.164c-38.704,53.928-39.664,73.792-36.96,76.496
	c2.4,2.4,20.056,1.992,67.568-30.696c49.562-35.551,95.942-75.34,138.616-118.92c43.579-42.674,83.369-89.054,118.92-138.616
	c32.688-47.52,33.12-65.136,30.696-67.568c-2.872-2.88-24.048-1.504-81.776,40.8c-3.566,2.611-8.573,1.838-11.184-1.728
	s-1.838-8.573,1.728-11.184c81.8-59.944,97.416-44.328,102.544-39.2c4.64,4.64,18.768,18.768-28.8,87.952
	C364.741,188.675,324.317,235.82,280.04,279.2c-43.364,44.248-90.488,84.647-140.84,120.744
	C99.136,427.496,77.536,434.4,65.544,434.4L65.544,434.4z"/>
<ellipse transform="matrix(-0.7071 -0.7071 0.7071 -0.7071 135.0269 407.9352)" style="fill:#F4F4E6;" cx="152" cy="176.003" rx="16.648" ry="29.568"/>
<circle style="fill:#FCF05A;" cx="272" cy="280" r="32"/>
<circle style="fill:#7FCAC9;" cx="368" cy="72" r="24"/>
<path d="M8,88c13.255,0,24,10.745,24,24c0,4.418,3.582,8,8,8s8-3.582,8-8c0-13.255,10.745-24,24-24c4.418,0,8-3.582,8-8
	s-3.582-8-8-8c-13.255,0-24-10.745-24-24c0-4.418-3.582-8-8-8s-8,3.582-8,8c0,13.255-10.745,24-24,24c-4.418,0-8,3.582-8,8
	S3.582,88,8,88z M40,72c2.278,3.029,4.971,5.722,8,8c-3.029,2.278-5.722,4.971-8,8c-2.278-3.029-4.971-5.722-8-8
	C35.029,77.722,37.722,75.029,40,72z"/>
<path id="SVGCleanerId_0_1_" d="M112,0h16v16h-16V0z"/>
<path id="SVGCleanerId_1_1_" d="M112,32h16v16h-16V32z"/>
<path id="SVGCleanerId_2_1_" d="M96,16h16v16H96V16z"/>
<path id="SVGCleanerId_3_1_" d="M128,16h16v16h-16V16z"/>
<path d="M472,392c-13.255,0-24-10.745-24-24c0-4.418-3.582-8-8-8s-8,3.582-8,8c0,13.255-10.745,24-24,24c-4.418,0-8,3.582-8,8
	s3.582,8,8,8c13.255,0,24,10.745,24,24c0,4.418,3.582,8,8,8s8-3.582,8-8c0-13.255,10.745-24,24-24c4.418,0,8-3.582,8-8
	S476.418,392,472,392z M440,408c-2.278-3.029-4.971-5.722-8-8c3.029-2.278,5.722-4.971,8-8c2.278,3.029,4.971,5.722,8,8
	C444.971,402.278,442.278,404.971,440,408z"/>
<path d="M352,464h16v16h-16V464z"/>
<path d="M352,432h16v16h-16V432z"/>
<path d="M368,448h16v16h-16V448z"/>
<path d="M336,448h16v16h-16V448z"/>
<path d="M429.656,50.344c-7.344-7.344-19.864-7.2-38.064,0.216c-11.604-13.159-31.679-14.42-44.838-2.815
	c-9.671,8.529-13.228,22.057-9.002,34.239c-5.152,3.611-10.435,7.435-15.848,11.472c-80.813-45.351-183.09-16.603-228.441,64.21
	c-28.654,51.059-28.62,113.362,0.089,164.39C51.368,378.68,37.072,414.616,51.2,428.8c3.925,3.655,9.173,5.548,14.528,5.24
	c21.896,0,57.6-21.872,92.048-47.64c80.715,45.534,183.061,17.015,228.596-63.701c28.796-51.045,28.874-113.415,0.204-164.531
	C420.312,113.4,446.808,67.496,429.656,50.344L429.656,50.344z M368,56c8.837,0,16,7.163,16,16s-7.163,16-16,16s-16-7.163-16-16
	S359.163,56,368,56z M240,88c51.34,0.034,99.189,25.999,127.2,69.024c-23.81,30.678-49.252,60.054-76.216,88
	C285.18,241.778,278.65,240.05,272,240c-22.08,0.026-39.974,17.92-40,40c0.047,6.528,1.71,12.943,4.84,18.672
	c-29.936,28.072-56.8,50.784-79.888,68.48c-70.282-45.804-90.125-139.91-44.321-210.192C140.689,113.909,188.612,87.962,240,88z
	 M248,280c0-13.255,10.745-24,24-24s24,10.745,24,24s-10.745,24-24,24S248,293.255,248,280z M62.544,417.456
	c-2.4-2.4-1.968-23.2,40.192-80.912c11.144,15.79,24.908,29.557,40.696,40.704C96.8,411.2,67.936,422.816,62.544,417.456
	L62.544,417.456z M392,240c0.173,83.775-67.599,151.828-151.374,152.002c-23.91,0.049-47.494-5.554-68.826-16.354
	c32.688-25.6,62.248-52.48,75.28-64.616c7.031,5.762,15.83,8.929,24.92,8.968c22.08-0.026,39.974-17.92,40-40
	c-0.039-8.965-3.119-17.652-8.736-24.64c13.32-14.04,44.056-47.2,72.528-83.256C386.431,193.157,391.982,216.412,392,240L392,240z
	 M377.32,143.528c-11.194-15.88-25.035-29.717-40.92-40.904c3.4-2.496,6.72-4.864,10-7.2c12.888,11.996,33.06,11.272,45.056-1.616
	C396.968,87.886,400.022,80.09,400,72c-0.018-2.443-0.322-4.875-0.904-7.248c12.92-5.08,18.248-4.096,19.248-3.096
	C423.768,67.08,411.536,96.672,377.32,143.528L377.32,143.528z"/>
<path d="M147.688,206.816c8.257-2.565,15.734-7.168,21.744-13.384c15.144-15.144,19.072-34.056,9.136-44
	c-6.073-5.401-14.619-7.035-22.256-4.256c-8.257,2.565-15.734,7.168-21.744,13.384c-15.144,15.144-19.072,34.056-9.136,44
	c3.796,3.642,8.902,5.598,14.16,5.424C142.331,207.965,145.055,207.572,147.688,206.816z M136.744,191.248
	c-2.096-2.096-0.176-12.056,9.136-21.368c4.076-4.257,9.137-7.447,14.736-9.288c3.496-0.968,5.856-0.616,6.64,0.16
	c2.096,2.096,0.176,12.056-9.136,21.368c-4.076,4.257-9.137,7.447-14.736,9.288C139.888,192.392,137.528,192.04,136.744,191.248z"/>
<g>
</g>
<g>
</g>
<g>
</g>
<g>
</g>
<g>
</g>
<g>
</g>
<g>
</g>
<g>
</g>
<g>
</g>
<g>
</g>
<g>
</g>
<g>
</g>
<g>
</g>
<g>
</g>
<g>
</g>
</svg>
