<?xml version="1.0"?>
<svg xmlns="http://www.w3.org/2000/svg" viewBox="0 0 64 64" width="512" height="512"><path d="m41 45h-18l2-30h14z" fill="#cfdfe8"/><g fill="#fdbd40"><path d="m7 17a1 1 0 0 1 -1-1 3 3 0 0 0 -3-3 1 1 0 0 1 0-2 3 3 0 0 0 3-3 1 1 0 0 1 2 0 3 3 0 0 0 3 3 1 1 0 0 1 0 2 3 3 0 0 0 -3 3 1 1 0 0 1 -1 1zm-1-5a5.043 5.043 0 0 1 1 1 5.043 5.043 0 0 1 1-1 5.043 5.043 0 0 1 -1-1 5.043 5.043 0 0 1 -1 1z"/><path d="m16 2h2v2h-2z"/><path d="m16 6h2v2h-2z"/><path d="m14 4h2v2h-2z"/><path d="m18 4h2v2h-2z"/><path d="m57 57a1 1 0 0 1 -1-1 3 3 0 0 0 -3-3 1 1 0 0 1 0-2 3 3 0 0 0 3-3 1 1 0 0 1 2 0 3 3 0 0 0 3 3 1 1 0 0 1 0 2 3 3 0 0 0 -3 3 1 1 0 0 1 -1 1zm-1-5a5.043 5.043 0 0 1 1 1 5.043 5.043 0 0 1 1-1 5.043 5.043 0 0 1 -1-1 5.043 5.043 0 0 1 -1 1z"/><path d="m46 60h2v2h-2z"/><path d="m46 56h2v2h-2z"/><path d="m48 58h2v2h-2z"/><path d="m44 58h2v2h-2z"/></g><path d="m8 52h2v2h-2z" fill="#238892"/><path d="m12 54h2v2h-2z" fill="#238892"/><path d="m50 8h2v2h-2z" fill="#238892"/><path d="m54 10h2v2h-2z" fill="#238892"/><path d="m39 15h-14l7-12z" fill="#e9686a"/><circle cx="32" cy="23" fill="#7d8d9c" r="4"/><path d="m30 35h4v10h-4z" fill="#7fcac9"/><path d="m29 45h6v4h-6z" fill="#fdbd40"/><path d="m32 49-4 4 4 8 4-8z" fill="#fcf05a"/><path d="m18 40-1 5h6l.6-9z" fill="#7fcac9"/><path d="m46 40-5.6-4 .6 9h6z" fill="#7fcac9"/></svg>
